<svg xmlns="http://www.w3.org/2000/svg" viewBox="0 0 512 512">
  <defs>
    <linearGradient id="g" x1="0%" y1="0%" x2="100%" y2="100%">
      <stop offset="0%" stop-color="#58a6ff"/>
      <stop offset="100%" stop-color="#1f6feb"/>
    </linearGradient>
  </defs>
  <circle cx="256" cy="256" r="240" fill="#0d1117"/>
  <path d="M256 56 l20 50 l50-15 l-5 52 l50 12 l-30 43 l40 33 l-48 22 l22 48 l-52-3 l3 52 l-50-22 l-20 50 l-20-50 l-50 22 l3-52 l-52 3 l22-48 l-48-22 l40-33 l-30-43 l50-12 l-5-52 l50 15 Z" fill="url(#g)" stroke="#58a6ff" stroke-width="2"/>
  <circle cx="256" cy="256" r="90" fill="#0d1117"/>
  <circle cx="256" cy="256" r="85" fill="none" stroke="#58a6ff" stroke-width="2" stroke-dasharray="8 6"/>
  <circle cx="256" cy="256" r="30" fill="#161b22" stroke="#30363d" stroke-width="3"/>
</svg>
